<svg width="786" height="450" viewBox="0 0 786 450" fill="none" xmlns="http://www.w3.org/2000/svg">
<rect width="786" height="450" fill="#E5E5E5"/>
<rect width="786" height="450" fill="#36BFC8"/>
<path d="M177.57 116.328L181.086 149.094L203.762 116.328H220.461L220.039 117.629C217.742 117.629 215.996 118.121 214.801 119.105C213.605 120.09 212.586 122.035 211.742 124.941L202.953 155.457C202.391 157.379 202.109 158.809 202.109 159.746C202.109 160.613 202.461 161.316 203.164 161.855C203.867 162.371 205.25 162.652 207.312 162.699L206.996 164H183.195L183.617 162.699C186.172 162.699 188.059 162.219 189.277 161.258C190.496 160.273 191.527 158.34 192.371 155.457L201.336 124.555L174.055 164H172.613L168.324 123.781L159.219 155.457C158.844 156.746 158.656 157.824 158.656 158.691C158.656 159.863 159.055 160.812 159.852 161.539C160.672 162.242 162.055 162.629 164 162.699L163.648 164H147.898L148.215 162.699C150.113 162.629 151.566 162.23 152.574 161.504C154.355 160.191 155.645 158.176 156.441 155.457L166.742 120.23C165.758 119.152 164.867 118.449 164.07 118.121C163.297 117.793 161.984 117.629 160.133 117.629L160.555 116.328H177.57ZM238.039 131.41C239.891 131.41 241.625 131.844 243.242 132.711C244.883 133.555 246.113 134.738 246.934 136.262C247.777 137.785 248.199 139.473 248.199 141.324C248.199 145.121 247.133 148.918 245 152.715C242.891 156.512 240.102 159.512 236.633 161.715C233.164 163.895 229.672 164.984 226.156 164.984C222.969 164.984 220.496 164.035 218.738 162.137C217.004 160.238 216.137 157.918 216.137 155.176C216.137 151.918 216.781 148.871 218.07 146.035C219.383 143.176 221.035 140.691 223.027 138.582C225.043 136.449 227.352 134.727 229.953 133.414C232.555 132.078 235.25 131.41 238.039 131.41ZM236.598 133.273C235.355 133.273 234.324 133.637 233.504 134.363C231.863 135.84 230.012 139.297 227.949 144.734C225.887 150.148 224.855 155.035 224.855 159.395C224.855 160.473 225.184 161.363 225.84 162.066C226.496 162.77 227.27 163.121 228.16 163.121C229.074 163.121 229.883 162.84 230.586 162.277C231.617 161.434 232.883 159.547 234.383 156.617C235.883 153.664 237.113 150.418 238.074 146.879C239.035 143.316 239.516 140.059 239.516 137.105C239.516 135.887 239.223 134.949 238.637 134.293C238.051 133.613 237.371 133.273 236.598 133.273ZM260.293 164.984H259.027C259.098 163.062 259.133 161.609 259.133 160.625C259.133 157.953 258.922 154.098 258.5 149.059C258.102 143.996 257.645 140.621 257.129 138.934C256.73 137.691 256.203 136.789 255.547 136.227C255.102 135.852 254.527 135.664 253.824 135.664C253.426 135.664 252.945 135.711 252.383 135.805V134.539L264.09 131.41C266.434 137.809 267.57 146 267.5 155.984C270.945 152.703 273.312 150.043 274.602 148.004C275.914 145.965 276.57 144.266 276.57 142.906C276.57 141.828 276.16 140.738 275.34 139.637C274.543 138.512 274.039 137.715 273.828 137.246C273.641 136.777 273.547 136.262 273.547 135.699C273.547 134.48 273.945 133.461 274.742 132.641C275.539 131.82 276.547 131.41 277.766 131.41C279.055 131.41 280.051 131.82 280.754 132.641C281.738 133.789 282.23 135.148 282.23 136.719C282.23 138.336 281.938 139.93 281.352 141.5C280.789 143.047 279.805 144.887 278.398 147.02C277.016 149.129 275.469 151.051 273.758 152.785C270.617 155.973 266.129 160.039 260.293 164.984ZM298.543 115.238C299.996 115.238 301.215 115.742 302.199 116.75C303.207 117.758 303.711 118.977 303.711 120.406C303.711 121.836 303.207 123.055 302.199 124.062C301.191 125.07 299.973 125.574 298.543 125.574C297.137 125.574 295.93 125.07 294.922 124.062C293.914 123.055 293.41 121.836 293.41 120.406C293.41 118.977 293.902 117.758 294.887 116.75C295.895 115.742 297.113 115.238 298.543 115.238ZM300.723 131.41L293.516 156.406C293.117 157.836 292.918 158.773 292.918 159.219C292.918 159.477 293.023 159.723 293.234 159.957C293.445 160.168 293.668 160.273 293.902 160.273C294.301 160.273 294.699 160.098 295.098 159.746C296.152 158.879 297.418 157.309 298.895 155.035L300.09 155.738C296.551 161.902 292.789 164.984 288.805 164.984C287.281 164.984 286.062 164.562 285.148 163.719C284.258 162.852 283.812 161.762 283.812 160.449C283.812 159.582 284.012 158.48 284.41 157.145L289.297 140.34C289.766 138.723 290 137.504 290 136.684C290 136.168 289.777 135.711 289.332 135.312C288.887 134.914 288.277 134.715 287.504 134.715C287.152 134.715 286.73 134.727 286.238 134.75L286.695 133.344L298.613 131.41H300.723ZM313.66 150.816C313.449 152.34 313.344 153.594 313.344 154.578C313.344 156.336 313.848 157.742 314.855 158.797C315.887 159.852 317.258 160.379 318.969 160.379C320.609 160.379 322.25 159.98 323.891 159.184C325.555 158.387 327.477 156.992 329.656 155L330.711 155.949C328.016 159.207 325.391 161.527 322.836 162.91C320.281 164.293 317.457 164.984 314.363 164.984C310.449 164.984 307.742 164.047 306.242 162.172C304.742 160.297 303.992 158.129 303.992 155.668C303.992 151.824 305.105 147.98 307.332 144.137C309.582 140.293 312.629 137.211 316.473 134.891C320.34 132.57 324.219 131.41 328.109 131.41C330.078 131.41 331.566 131.879 332.574 132.816C333.582 133.754 334.086 134.938 334.086 136.367C334.086 138.078 333.594 139.742 332.609 141.359C331.25 143.562 329.539 145.344 327.477 146.703C325.414 148.039 323.105 149.059 320.551 149.762C318.84 150.23 316.543 150.582 313.66 150.816ZM313.977 148.988C316.039 148.684 317.633 148.273 318.758 147.758C319.906 147.219 321.02 146.375 322.098 145.227C323.199 144.055 324.148 142.59 324.945 140.832C325.742 139.051 326.141 137.387 326.141 135.84C326.141 135.184 325.953 134.668 325.578 134.293C325.227 133.918 324.77 133.73 324.207 133.73C323.082 133.73 321.816 134.516 320.41 136.086C317.832 138.945 315.688 143.246 313.977 148.988ZM361.191 131.41L359.645 142.273H358.344C358.156 139.461 357.289 137.246 355.742 135.629C354.219 134.012 352.578 133.203 350.82 133.203C349.742 133.203 348.852 133.52 348.148 134.152C347.445 134.785 347.094 135.547 347.094 136.438C347.094 137.188 347.246 137.891 347.551 138.547C347.855 139.203 348.535 140.094 349.59 141.219C353.293 145.203 355.543 147.945 356.34 149.445C357.137 150.945 357.535 152.551 357.535 154.262C357.535 156.113 357.066 157.871 356.129 159.535C355.191 161.176 353.785 162.5 351.91 163.508C350.059 164.492 348.125 164.984 346.109 164.984C344.75 164.984 343.074 164.715 341.082 164.176C339.77 163.801 338.785 163.613 338.129 163.613C337.543 163.613 337.086 163.707 336.758 163.895C336.43 164.059 336.066 164.422 335.668 164.984H334.367L336.09 153.277H337.215C338.035 156.113 338.797 158.141 339.5 159.359C340.227 160.555 341.188 161.516 342.383 162.242C343.578 162.945 344.727 163.297 345.828 163.297C347.117 163.297 348.184 162.898 349.027 162.102C349.871 161.281 350.293 160.309 350.293 159.184C350.293 158.082 350.012 157.016 349.449 155.984C348.91 154.953 347.645 153.348 345.652 151.168C342.91 148.191 341.105 145.895 340.238 144.277C339.629 143.105 339.324 141.77 339.324 140.27C339.324 137.738 340.238 135.629 342.066 133.941C343.918 132.254 346.508 131.41 349.836 131.41C351.289 131.41 353.07 131.668 355.18 132.184C356.234 132.441 357.078 132.57 357.711 132.57C358.625 132.57 359.363 132.184 359.926 131.41H361.191ZM401.129 140.727L396.91 155.176C396.301 157.215 395.996 158.715 395.996 159.676C395.996 160.566 396.359 161.281 397.086 161.82C397.812 162.359 399.324 162.652 401.621 162.699L401.129 164H378.172L378.594 162.699C380.891 162.699 382.566 162.254 383.621 161.363C384.699 160.473 385.684 158.48 386.574 155.387L395.434 124.801C395.926 123.09 396.172 121.742 396.172 120.758C396.172 119.82 395.867 119.105 395.258 118.613C394.648 118.121 393.23 117.793 391.004 117.629L391.355 116.328H411.113C416.762 116.328 420.734 117.312 423.031 119.281C425.328 121.25 426.477 123.781 426.477 126.875C426.477 130.133 425.141 133.074 422.469 135.699C420.781 137.34 417.793 138.758 413.504 139.953L417.793 154.402C418.941 158.27 419.938 160.602 420.781 161.398C421.648 162.195 423.078 162.629 425.07 162.699V164H410.234L403.484 140.727L402.324 140.797C402.066 140.797 401.668 140.773 401.129 140.727ZM401.621 138.617C402.441 138.664 403.133 138.688 403.695 138.688C407.117 138.688 409.93 137.516 412.133 135.172C414.336 132.828 415.438 129.758 415.438 125.961C415.438 123.711 414.852 122 413.68 120.828C412.508 119.656 410.961 119.07 409.039 119.07C408.57 119.07 408.02 119.082 407.387 119.105L401.621 138.617ZM462.969 131.902L456.148 155.281L455.445 158.129C455.375 158.48 455.34 158.738 455.34 158.902C455.34 159.184 455.434 159.43 455.621 159.641C455.832 159.852 456.043 159.957 456.254 159.957C456.746 159.957 457.426 159.582 458.293 158.832C458.645 158.527 459.488 157.449 460.824 155.598L462.055 156.23C460.391 159.277 458.609 161.504 456.711 162.91C454.836 164.293 452.809 164.984 450.629 164.984C449.293 164.984 448.273 164.645 447.57 163.965C446.867 163.262 446.516 162.383 446.516 161.328C446.516 160.414 446.891 158.715 447.641 156.23L448.484 153.383C445.766 158.047 443.152 161.352 440.645 163.297C439.191 164.422 437.645 164.984 436.004 164.984C433.848 164.984 432.289 164.105 431.328 162.348C430.367 160.566 429.887 158.562 429.887 156.336C429.887 153.031 430.895 149.246 432.91 144.98C434.926 140.691 437.574 137.246 440.855 134.645C443.551 132.488 446.082 131.41 448.449 131.41C449.762 131.41 450.816 131.797 451.613 132.57C452.41 133.32 452.996 134.703 453.371 136.719L454.637 132.395L462.969 131.902ZM451.719 138.582C451.719 136.684 451.426 135.312 450.84 134.469C450.418 133.883 449.844 133.59 449.117 133.59C448.391 133.59 447.641 133.941 446.867 134.645C445.297 136.098 443.598 139.051 441.77 143.504C439.965 147.934 439.062 151.766 439.062 155C439.062 156.242 439.262 157.145 439.66 157.707C440.082 158.246 440.539 158.516 441.031 158.516C442.086 158.516 443.152 157.906 444.23 156.688C445.777 154.953 447.172 152.832 448.414 150.324C450.617 145.918 451.719 142.004 451.719 138.582ZM483.711 131.41L479.352 146.492C482.281 142.086 484.473 139.074 485.926 137.457C488.059 135.113 489.898 133.52 491.445 132.676C492.992 131.832 494.445 131.41 495.805 131.41C497.023 131.41 498.066 131.867 498.934 132.781C499.801 133.672 500.234 134.844 500.234 136.297C500.234 137.609 499.953 139.203 499.391 141.078L494.891 156.09C494.516 157.402 494.328 158.258 494.328 158.656C494.328 158.891 494.41 159.102 494.574 159.289C494.762 159.477 494.949 159.57 495.137 159.57C495.371 159.57 495.617 159.477 495.875 159.289C496.695 158.609 497.527 157.648 498.371 156.406C498.582 156.078 498.922 155.586 499.391 154.93L500.727 155.738C497.281 161.527 493.66 164.422 489.863 164.422C488.41 164.422 487.273 164.047 486.453 163.297C485.633 162.547 485.223 161.609 485.223 160.484C485.223 159.5 485.504 158.035 486.066 156.09L490.461 141.078C490.766 140.094 490.918 139.367 490.918 138.898C490.918 138.641 490.812 138.418 490.602 138.23C490.391 138.02 490.145 137.914 489.863 137.914C488.973 137.914 487.895 138.523 486.629 139.742C483.395 142.836 480.266 147.441 477.242 153.559L474.359 164H465.395L471.969 141.43C472.602 139.203 472.918 137.621 472.918 136.684C472.918 136.285 472.824 135.957 472.637 135.699C472.449 135.418 472.145 135.207 471.723 135.066C471.301 134.902 470.504 134.82 469.332 134.82L469.719 133.484L481.566 131.41H483.711ZM528.008 115.238L518.305 148.496L526.355 141.043L529.027 138.652C529.801 137.855 530.34 137.176 530.645 136.613C530.832 136.262 530.926 135.934 530.926 135.629C530.926 135.137 530.691 134.727 530.223 134.398C529.754 134.07 528.617 133.848 526.812 133.73L527.199 132.395H541.508L541.156 133.73C539.469 134.129 538.098 134.586 537.043 135.102C536.223 135.5 535.215 136.156 534.02 137.07C532.238 138.453 530.961 139.52 530.188 140.27L528.641 141.711L530.785 151.414C531.605 155.164 532.215 157.332 532.613 157.918C532.871 158.27 533.176 158.445 533.527 158.445C534.348 158.445 535.32 157.484 536.445 155.562C536.609 155.305 536.832 154.941 537.113 154.473L538.414 155.281C536.656 158.562 534.676 161.059 532.473 162.77C530.996 163.918 529.66 164.492 528.465 164.492C527.27 164.492 526.273 164.07 525.477 163.227C524.68 162.359 523.883 160.109 523.086 156.477L521.328 148.496L517.461 151.941L513.945 164H504.98L516.652 124.309C517.145 122.621 517.391 121.484 517.391 120.898C517.391 120.359 517.273 119.926 517.039 119.598C516.805 119.246 516.477 118.988 516.055 118.824C515.656 118.66 514.848 118.578 513.629 118.578L513.945 117.277L525.898 115.238H528.008ZM556.73 115.238C558.184 115.238 559.402 115.742 560.387 116.75C561.395 117.758 561.898 118.977 561.898 120.406C561.898 121.836 561.395 123.055 560.387 124.062C559.379 125.07 558.16 125.574 556.73 125.574C555.324 125.574 554.117 125.07 553.109 124.062C552.102 123.055 551.598 121.836 551.598 120.406C551.598 118.977 552.09 117.758 553.074 116.75C554.082 115.742 555.301 115.238 556.73 115.238ZM558.91 131.41L551.703 156.406C551.305 157.836 551.105 158.773 551.105 159.219C551.105 159.477 551.211 159.723 551.422 159.957C551.633 160.168 551.855 160.273 552.09 160.273C552.488 160.273 552.887 160.098 553.285 159.746C554.34 158.879 555.605 157.309 557.082 155.035L558.277 155.738C554.738 161.902 550.977 164.984 546.992 164.984C545.469 164.984 544.25 164.562 543.336 163.719C542.445 162.852 542 161.762 542 160.449C542 159.582 542.199 158.48 542.598 157.145L547.484 140.34C547.953 138.723 548.188 137.504 548.188 136.684C548.188 136.168 547.965 135.711 547.52 135.312C547.074 134.914 546.465 134.715 545.691 134.715C545.34 134.715 544.918 134.727 544.426 134.75L544.883 133.344L556.801 131.41H558.91ZM579.828 131.41L575.469 146.492C578.398 142.086 580.59 139.074 582.043 137.457C584.176 135.113 586.016 133.52 587.562 132.676C589.109 131.832 590.562 131.41 591.922 131.41C593.141 131.41 594.184 131.867 595.051 132.781C595.918 133.672 596.352 134.844 596.352 136.297C596.352 137.609 596.07 139.203 595.508 141.078L591.008 156.09C590.633 157.402 590.445 158.258 590.445 158.656C590.445 158.891 590.527 159.102 590.691 159.289C590.879 159.477 591.066 159.57 591.254 159.57C591.488 159.57 591.734 159.477 591.992 159.289C592.812 158.609 593.645 157.648 594.488 156.406C594.699 156.078 595.039 155.586 595.508 154.93L596.844 155.738C593.398 161.527 589.777 164.422 585.98 164.422C584.527 164.422 583.391 164.047 582.57 163.297C581.75 162.547 581.34 161.609 581.34 160.484C581.34 159.5 581.621 158.035 582.184 156.09L586.578 141.078C586.883 140.094 587.035 139.367 587.035 138.898C587.035 138.641 586.93 138.418 586.719 138.23C586.508 138.02 586.262 137.914 585.98 137.914C585.09 137.914 584.012 138.523 582.746 139.742C579.512 142.836 576.383 147.441 573.359 153.559L570.477 164H561.512L568.086 141.43C568.719 139.203 569.035 137.621 569.035 136.684C569.035 136.285 568.941 135.957 568.754 135.699C568.566 135.418 568.262 135.207 567.84 135.066C567.418 134.902 566.621 134.82 565.449 134.82L565.836 133.484L577.684 131.41H579.828ZM628.52 133.555H637.871L636.746 137.422H631.895C632.645 138.805 633.02 140.117 633.02 141.359C633.02 143.492 632.434 145.461 631.262 147.266C630.113 149.07 628.402 150.512 626.129 151.59C623.879 152.668 621.371 153.207 618.605 153.207C617.879 153.207 617.07 153.16 616.18 153.066C615.312 152.949 614.363 152.797 613.332 152.609C611.785 153.406 610.812 154.039 610.414 154.508C610.133 154.836 609.992 155.176 609.992 155.527C609.992 155.949 610.168 156.312 610.52 156.617C611.129 157.156 612.031 157.555 613.227 157.812C618.008 158.844 621.16 159.676 622.684 160.309C624.77 161.176 626.34 162.289 627.395 163.648C628.473 165.008 629.012 166.648 629.012 168.57C629.012 171.5 627.664 174.055 624.969 176.234C622.273 178.438 618.102 179.539 612.453 179.539C606.758 179.539 602.562 178.602 599.867 176.727C597.922 175.367 596.949 173.75 596.949 171.875C596.949 170.445 597.594 169.121 598.883 167.902C600.148 166.684 602.879 165.605 607.074 164.668C605.645 163.871 604.684 163.145 604.191 162.488C603.512 161.598 603.172 160.672 603.172 159.711C603.172 158.141 603.793 156.758 605.035 155.562C606.301 154.367 608.41 153.184 611.363 152.012C609.066 151.098 607.402 149.926 606.371 148.496C605.363 147.043 604.859 145.355 604.859 143.434C604.859 141.395 605.469 139.461 606.688 137.633C607.93 135.781 609.746 134.281 612.137 133.133C614.551 131.984 617.316 131.41 620.434 131.41C622.426 131.41 624.195 131.633 625.742 132.078C626.539 132.312 627.465 132.805 628.52 133.555ZM621.172 133.133C620.023 133.133 619.051 133.508 618.254 134.258C616.988 135.406 615.875 137.328 614.914 140.023C613.977 142.719 613.508 145.273 613.508 147.688C613.508 148.836 613.836 149.75 614.492 150.43C615.172 151.086 616.004 151.414 616.988 151.414C617.949 151.414 618.781 151.086 619.484 150.43C620.82 149.141 621.98 147.09 622.965 144.277C623.949 141.441 624.441 138.875 624.441 136.578C624.441 135.547 624.125 134.715 623.492 134.082C622.859 133.449 622.086 133.133 621.172 133.133ZM609.043 165.477C606.816 166.344 605.293 167.281 604.473 168.289C603.676 169.297 603.277 170.387 603.277 171.559C603.277 173.082 604.074 174.453 605.668 175.672C607.285 176.914 609.852 177.535 613.367 177.535C616.297 177.535 618.418 176.996 619.73 175.918C621.043 174.863 621.699 173.621 621.699 172.191C621.699 170.926 621.09 169.895 619.871 169.098C618.676 168.301 616.367 167.469 612.945 166.602C611.352 166.18 610.051 165.805 609.043 165.477Z" fill="black"/>
<ellipse cx="407" cy="286" rx="81" ry="76" fill="#F5E022"/>
<ellipse cx="370.5" cy="265" rx="11.5" ry="11" fill="black"/>
<ellipse cx="437.5" cy="265" rx="10.5" ry="11" fill="black"/>
<path d="M459 312.984C459 317.402 436.614 320.984 409 320.984C381.386 320.984 356 317.402 356 312.984C356 308.565 377 304.984 409 304.984C441 304.984 459 308.565 459 312.984Z" fill="#1E1717"/>
</svg>
